<svg xmlns="http://www.w3.org/2000/svg" viewBox="0 0 1600 900" width="1600" height="900" role="img" aria-label="İç mekân karşılama alanı — perspektif konsept eskizi">
<title>İç mekân karşılama alanı — perspektif konsept eskizi</title>
<rect width="1600" height="900" fill="#161310"/>
<polygon points="60.0,860.0 600.0,640.0 1160.0,640.0 1540.0,860.0" fill="#1d1915" stroke="#f6f2ea" stroke-width="1.2" stroke-linejoin="round" opacity="1" pathLength="1"/>
<polygon points="60.0,175.0 600.0,300.0 1160.0,300.0 1540.0,175.0" fill="#221e19" stroke="#f6f2ea" stroke-width="1.2" stroke-linejoin="round" opacity="1" pathLength="1"/>
<polygon points="60.0,175.0 60.0,860.0 600.0,640.0 600.0,300.0" fill="#2b2620" stroke="#f6f2ea" stroke-width="1.2" stroke-linejoin="round" opacity="1" pathLength="1"/>
<polygon points="1540.0,175.0 1540.0,860.0 1160.0,640.0 1160.0,300.0" fill="#354547" stroke="#f6f2ea" stroke-width="1.2" stroke-linejoin="round" opacity="1" pathLength="1"/>
<polygon points="600.0,300.0 1160.0,300.0 1160.0,640.0 600.0,640.0" fill="#2f2a23" stroke="#f6f2ea" stroke-width="1.2" stroke-linejoin="round" opacity="1" pathLength="1"/>
<line x1="183.3" y1="860.0" x2="646.7" y2="640.0" stroke="#bfb7a8" stroke-width="0.5" stroke-linecap="round" opacity="0.6" pathLength="1"/>
<line x1="306.7" y1="860.0" x2="693.3" y2="640.0" stroke="#bfb7a8" stroke-width="0.5" stroke-linecap="round" opacity="0.6" pathLength="1"/>
<line x1="430.0" y1="860.0" x2="740.0" y2="640.0" stroke="#bfb7a8" stroke-width="0.5" stroke-linecap="round" opacity="0.6" pathLength="1"/>
<line x1="553.3" y1="860.0" x2="786.7" y2="640.0" stroke="#bfb7a8" stroke-width="0.5" stroke-linecap="round" opacity="0.6" pathLength="1"/>
<line x1="676.7" y1="860.0" x2="833.3" y2="640.0" stroke="#bfb7a8" stroke-width="0.5" stroke-linecap="round" opacity="0.6" pathLength="1"/>
<line x1="800.0" y1="860.0" x2="880.0" y2="640.0" stroke="#bfb7a8" stroke-width="0.5" stroke-linecap="round" opacity="0.6" pathLength="1"/>
<line x1="923.3" y1="860.0" x2="926.7" y2="640.0" stroke="#bfb7a8" stroke-width="0.5" stroke-linecap="round" opacity="0.6" pathLength="1"/>
<line x1="1046.7" y1="860.0" x2="973.3" y2="640.0" stroke="#bfb7a8" stroke-width="0.5" stroke-linecap="round" opacity="0.6" pathLength="1"/>
<line x1="1170.0" y1="860.0" x2="1020.0" y2="640.0" stroke="#bfb7a8" stroke-width="0.5" stroke-linecap="round" opacity="0.6" pathLength="1"/>
<line x1="1293.3" y1="860.0" x2="1066.7" y2="640.0" stroke="#bfb7a8" stroke-width="0.5" stroke-linecap="round" opacity="0.6" pathLength="1"/>
<line x1="1416.7" y1="860.0" x2="1113.3" y2="640.0" stroke="#bfb7a8" stroke-width="0.5" stroke-linecap="round" opacity="0.6" pathLength="1"/>
<line x1="90.7" y1="847.5" x2="1518.4" y2="847.5" stroke="#bfb7a8" stroke-width="0.45" stroke-linecap="round" opacity="0.55" pathLength="1"/>
<line x1="153.1" y1="822.1" x2="1474.5" y2="822.1" stroke="#bfb7a8" stroke-width="0.45" stroke-linecap="round" opacity="0.55" pathLength="1"/>
<line x1="238.1" y1="787.4" x2="1414.6" y2="787.4" stroke="#bfb7a8" stroke-width="0.45" stroke-linecap="round" opacity="0.55" pathLength="1"/>
<line x1="342.3" y1="745.0" x2="1341.4" y2="745.0" stroke="#bfb7a8" stroke-width="0.45" stroke-linecap="round" opacity="0.55" pathLength="1"/>
<line x1="463.4" y1="695.7" x2="1256.1" y2="695.7" stroke="#bfb7a8" stroke-width="0.45" stroke-linecap="round" opacity="0.55" pathLength="1"/>
<line x1="60.0" y1="206.1" x2="600.0" y2="315.5" stroke="#bfb7a8" stroke-width="0.6" stroke-linecap="round" opacity="0.7" pathLength="1"/>
<line x1="60.0" y1="237.3" x2="600.0" y2="330.9" stroke="#bfb7a8" stroke-width="0.6" stroke-linecap="round" opacity="0.7" pathLength="1"/>
<line x1="60.0" y1="268.4" x2="600.0" y2="346.4" stroke="#bfb7a8" stroke-width="0.6" stroke-linecap="round" opacity="0.7" pathLength="1"/>
<line x1="60.0" y1="299.5" x2="600.0" y2="361.8" stroke="#bfb7a8" stroke-width="0.6" stroke-linecap="round" opacity="0.7" pathLength="1"/>
<line x1="60.0" y1="330.7" x2="600.0" y2="377.3" stroke="#bfb7a8" stroke-width="0.6" stroke-linecap="round" opacity="0.7" pathLength="1"/>
<line x1="60.0" y1="361.8" x2="600.0" y2="392.7" stroke="#bfb7a8" stroke-width="0.6" stroke-linecap="round" opacity="0.7" pathLength="1"/>
<line x1="60.0" y1="393.0" x2="600.0" y2="408.2" stroke="#bfb7a8" stroke-width="0.6" stroke-linecap="round" opacity="0.7" pathLength="1"/>
<line x1="60.0" y1="424.1" x2="600.0" y2="423.6" stroke="#bfb7a8" stroke-width="0.6" stroke-linecap="round" opacity="0.7" pathLength="1"/>
<line x1="60.0" y1="455.2" x2="600.0" y2="439.1" stroke="#bfb7a8" stroke-width="0.6" stroke-linecap="round" opacity="0.7" pathLength="1"/>
<line x1="60.0" y1="486.4" x2="600.0" y2="454.5" stroke="#bfb7a8" stroke-width="0.6" stroke-linecap="round" opacity="0.7" pathLength="1"/>
<line x1="60.0" y1="517.5" x2="600.0" y2="470.0" stroke="#bfb7a8" stroke-width="0.6" stroke-linecap="round" opacity="0.7" pathLength="1"/>
<line x1="60.0" y1="548.6" x2="600.0" y2="485.5" stroke="#bfb7a8" stroke-width="0.6" stroke-linecap="round" opacity="0.7" pathLength="1"/>
<line x1="60.0" y1="579.8" x2="600.0" y2="500.9" stroke="#bfb7a8" stroke-width="0.6" stroke-linecap="round" opacity="0.7" pathLength="1"/>
<line x1="60.0" y1="610.9" x2="600.0" y2="516.4" stroke="#bfb7a8" stroke-width="0.6" stroke-linecap="round" opacity="0.7" pathLength="1"/>
<line x1="60.0" y1="642.0" x2="600.0" y2="531.8" stroke="#bfb7a8" stroke-width="0.6" stroke-linecap="round" opacity="0.7" pathLength="1"/>
<line x1="60.0" y1="673.2" x2="600.0" y2="547.3" stroke="#bfb7a8" stroke-width="0.6" stroke-linecap="round" opacity="0.7" pathLength="1"/>
<line x1="60.0" y1="704.3" x2="600.0" y2="562.7" stroke="#bfb7a8" stroke-width="0.6" stroke-linecap="round" opacity="0.7" pathLength="1"/>
<line x1="60.0" y1="735.5" x2="600.0" y2="578.2" stroke="#bfb7a8" stroke-width="0.6" stroke-linecap="round" opacity="0.7" pathLength="1"/>
<line x1="60.0" y1="766.6" x2="600.0" y2="593.6" stroke="#bfb7a8" stroke-width="0.6" stroke-linecap="round" opacity="0.7" pathLength="1"/>
<line x1="60.0" y1="797.7" x2="600.0" y2="609.1" stroke="#bfb7a8" stroke-width="0.6" stroke-linecap="round" opacity="0.7" pathLength="1"/>
<line x1="60.0" y1="828.9" x2="600.0" y2="624.5" stroke="#bfb7a8" stroke-width="0.6" stroke-linecap="round" opacity="0.7" pathLength="1"/>
<line x1="1492.5" y1="190.6" x2="1492.5" y2="832.5" stroke="#f6f2ea" stroke-width="1" stroke-linecap="round" opacity="1" pathLength="1"/>
<line x1="1445.0" y1="206.2" x2="1445.0" y2="805.0" stroke="#f6f2ea" stroke-width="1" stroke-linecap="round" opacity="1" pathLength="1"/>
<line x1="1397.5" y1="221.9" x2="1397.5" y2="777.5" stroke="#f6f2ea" stroke-width="1" stroke-linecap="round" opacity="1" pathLength="1"/>
<line x1="1350.0" y1="237.5" x2="1350.0" y2="750.0" stroke="#f6f2ea" stroke-width="1" stroke-linecap="round" opacity="1" pathLength="1"/>
<line x1="1302.5" y1="253.1" x2="1302.5" y2="722.5" stroke="#f6f2ea" stroke-width="1" stroke-linecap="round" opacity="1" pathLength="1"/>
<line x1="1255.0" y1="268.8" x2="1255.0" y2="695.0" stroke="#f6f2ea" stroke-width="1" stroke-linecap="round" opacity="1" pathLength="1"/>
<line x1="1207.5" y1="284.4" x2="1207.5" y2="667.5" stroke="#f6f2ea" stroke-width="1" stroke-linecap="round" opacity="1" pathLength="1"/>
<line x1="1540.0" y1="517.5" x2="1160.0" y2="470.0" stroke="#d79a73" stroke-width="1.4" stroke-linecap="round" opacity="1" pathLength="1"/>
<line x1="228.0" y1="200.0" x2="1404.0" y2="200.0" stroke="#e8b596" stroke-width="3" stroke-linecap="round" opacity="0.8" pathLength="1"/>
<line x1="336.0" y1="225.0" x2="1328.0" y2="225.0" stroke="#e8b596" stroke-width="3" stroke-linecap="round" opacity="0.8" pathLength="1"/>
<line x1="444.0" y1="250.0" x2="1252.0" y2="250.0" stroke="#e8b596" stroke-width="3" stroke-linecap="round" opacity="0.8" pathLength="1"/>
<line x1="552.0" y1="275.0" x2="1176.0" y2="275.0" stroke="#e8b596" stroke-width="3" stroke-linecap="round" opacity="0.8" pathLength="1"/>
<rect x="680.0" y="550.0" width="260.0" height="90.0" rx="0" fill="#221e19" stroke="#f6f2ea" stroke-width="1.2" pathLength="1"/>
<rect x="670.0" y="544.0" width="280.0" height="8.0" rx="0" fill="#2a251e" stroke="#f6f2ea" stroke-width="1" pathLength="1"/>
<rect x="1000.0" y="360.0" width="120.0" height="80.0" rx="0" fill="#e8b596" stroke="#f6f2ea" stroke-width="1" pathLength="1"/>
<text x="810.0" y="602.0" font-family="Helvetica, Arial, sans-serif" font-size="10" fill="#d79a73" text-anchor="middle" font-weight="600" letter-spacing="1.5">RESEPSİYON</text>
<polygon points="300.0,700.0 560.0,640.0 560.0,590.0 300.0,640.0" fill="#2f2a23" stroke="#f6f2ea" stroke-width="1.2" stroke-linejoin="round" opacity="1" pathLength="1"/>
<polygon points="300.0,640.0 560.0,590.0 560.0,560.0 300.0,605.0" fill="#221e19" stroke="#f6f2ea" stroke-width="1" stroke-linejoin="round" opacity="1" pathLength="1"/>
<polygon points="640.0,660.0 860.0,610.0 860.0,600.0 640.0,650.0" fill="#2a251e" stroke="#f6f2ea" stroke-width="1.2" stroke-linejoin="round" opacity="1" pathLength="1"/>
<line x1="650.0" y1="650.0" x2="650.0" y2="700.0" stroke="#f6f2ea" stroke-width="1.2" stroke-linecap="round" opacity="1" pathLength="1"/>
<line x1="850.0" y1="600.0" x2="850.0" y2="650.0" stroke="#f6f2ea" stroke-width="1.2" stroke-linecap="round" opacity="1" pathLength="1"/>
<line x1="1380.0" y1="760.0" x2="1380.0" y2="686.4" stroke="#bfb7a8" stroke-width="1.4" stroke-linecap="round" opacity="1" pathLength="1"/>
<ellipse cx="1380.0" cy="672.6" rx="46.0" ry="36.8" fill="#33402c" stroke="#bfb7a8" stroke-width="0.9" pathLength="1"/>
<rect x="1358.0" y="750.0" width="44.0" height="34.0" rx="0" fill="#3a342b" stroke="#f6f2ea" stroke-width="1" pathLength="1"/>
<line x1="1250.0" y1="690.0" x2="1250.0" y2="642.0" stroke="#bfb7a8" stroke-width="1.4" stroke-linecap="round" opacity="1" pathLength="1"/>
<ellipse cx="1250.0" cy="633.0" rx="30.0" ry="24.0" fill="#33402c" stroke="#bfb7a8" stroke-width="0.9" pathLength="1"/>
<rect x="1228.0" y="680.0" width="44.0" height="34.0" rx="0" fill="#3a342b" stroke="#f6f2ea" stroke-width="1" pathLength="1"/>
<line x1="1000.0" y1="640.0" x2="1000.0" y2="560.0" stroke="#f6f2ea" stroke-width="1.8" stroke-linecap="round" opacity="1" pathLength="1"/>
<circle cx="1000.0" cy="548.0" r="7.0" fill="#f6f2ea" stroke="#f6f2ea" stroke-width="1" pathLength="1"/>
<text x="60.0" y="70.0" font-family="Helvetica, Arial, sans-serif" font-size="13" fill="#d79a73" text-anchor="start" font-weight="600" letter-spacing="3">İÇ MEKÂN TASARIMI</text>
<text x="60.0" y="108.0" font-family="Georgia, 'Times New Roman', serif" font-size="30" fill="#f6f2ea" text-anchor="start" font-weight="400" letter-spacing="0">Karşılama Alanı — Tek Kaçış Noktalı Perspektif</text>
<text x="60.0" y="134.0" font-family="Helvetica, Arial, sans-serif" font-size="13" fill="#bfb7a8" text-anchor="start" font-weight="400" letter-spacing="0.3">Ahşap lamel duvar · tam boy cam · lineer aydınlatma · doğal taş resepsiyon · konsept eskiz</text>
<rect x="1096.0" y="782.0" width="470.0" height="86.0" rx="0" fill="#1d1915" stroke="#d79a73" stroke-width="1.2" pathLength="1"/>
<line x1="1170.0" y1="782.0" x2="1170.0" y2="868.0" stroke="#d79a73" stroke-width="1" stroke-linecap="round" opacity="1" pathLength="1"/>
<text x="1133.0" y="837.0" font-family="Georgia, 'Times New Roman', serif" font-size="30" fill="#d79a73" text-anchor="middle" font-weight="700" letter-spacing="0">HMİ</text>
<text x="1188.0" y="812.0" font-family="Georgia, 'Times New Roman', serif" font-size="19" fill="#f6f2ea" text-anchor="start" font-weight="400" letter-spacing="0">İç Mekân · Karşılama</text>
<text x="1188.0" y="835.0" font-family="Helvetica, Arial, sans-serif" font-size="10.5" fill="#d79a73" text-anchor="start" font-weight="600" letter-spacing="2.4">PERSPEKTIF ESKIZ</text>
<text x="1188.0" y="855.0" font-family="Helvetica, Arial, sans-serif" font-size="10" fill="#bfb7a8" text-anchor="start" font-weight="400" letter-spacing="0.4">Konsept eskiz · Ölçeksiz · Haşimoğlu Mimarlık · 2026</text>
</svg>