<svg xmlns="http://www.w3.org/2000/svg" viewBox="0 0 1600 900" width="1600" height="900" role="img" aria-label="Akvaryum yapısı — kütle aksonometrisi konsept eskizi">
<title>Akvaryum yapısı — kütle aksonometrisi konsept eskizi</title>
<rect width="1600" height="900" fill="#161310"/>
<polygon points="762.0,172.2 1590.6,650.6 1086.2,941.8 257.6,463.4" fill="#1f1b16" stroke="#bfb7a8" stroke-width="1" stroke-linejoin="round" opacity="1" pathLength="1"/>
<line x1="762.0" y1="172.2" x2="257.6" y2="463.4" stroke="#bfb7a8" stroke-width="0.25" stroke-linecap="round" opacity="0.3" pathLength="1"/>
<line x1="798.0" y1="193.0" x2="293.6" y2="484.2" stroke="#bfb7a8" stroke-width="0.25" stroke-linecap="round" opacity="0.3" pathLength="1"/>
<line x1="834.0" y1="213.8" x2="329.7" y2="505.0" stroke="#bfb7a8" stroke-width="0.25" stroke-linecap="round" opacity="0.3" pathLength="1"/>
<line x1="870.1" y1="234.6" x2="365.7" y2="525.8" stroke="#bfb7a8" stroke-width="0.25" stroke-linecap="round" opacity="0.3" pathLength="1"/>
<line x1="906.1" y1="255.4" x2="401.7" y2="546.6" stroke="#bfb7a8" stroke-width="0.25" stroke-linecap="round" opacity="0.3" pathLength="1"/>
<line x1="942.1" y1="276.2" x2="437.7" y2="567.4" stroke="#bfb7a8" stroke-width="0.25" stroke-linecap="round" opacity="0.3" pathLength="1"/>
<line x1="978.1" y1="297.0" x2="473.8" y2="588.2" stroke="#bfb7a8" stroke-width="0.25" stroke-linecap="round" opacity="0.3" pathLength="1"/>
<line x1="1014.2" y1="317.8" x2="509.8" y2="609.0" stroke="#bfb7a8" stroke-width="0.25" stroke-linecap="round" opacity="0.3" pathLength="1"/>
<line x1="1050.2" y1="338.6" x2="545.8" y2="629.8" stroke="#bfb7a8" stroke-width="0.25" stroke-linecap="round" opacity="0.3" pathLength="1"/>
<line x1="1086.2" y1="359.4" x2="581.9" y2="650.6" stroke="#bfb7a8" stroke-width="0.25" stroke-linecap="round" opacity="0.3" pathLength="1"/>
<line x1="1122.3" y1="380.2" x2="617.9" y2="671.4" stroke="#bfb7a8" stroke-width="0.25" stroke-linecap="round" opacity="0.3" pathLength="1"/>
<line x1="1158.3" y1="401.0" x2="653.9" y2="692.2" stroke="#bfb7a8" stroke-width="0.25" stroke-linecap="round" opacity="0.3" pathLength="1"/>
<line x1="1194.3" y1="421.8" x2="689.9" y2="713.0" stroke="#bfb7a8" stroke-width="0.25" stroke-linecap="round" opacity="0.3" pathLength="1"/>
<line x1="1230.3" y1="442.6" x2="726.0" y2="733.8" stroke="#bfb7a8" stroke-width="0.25" stroke-linecap="round" opacity="0.3" pathLength="1"/>
<line x1="1266.4" y1="463.4" x2="762.0" y2="754.6" stroke="#bfb7a8" stroke-width="0.25" stroke-linecap="round" opacity="0.3" pathLength="1"/>
<line x1="1302.4" y1="484.2" x2="798.0" y2="775.4" stroke="#bfb7a8" stroke-width="0.25" stroke-linecap="round" opacity="0.3" pathLength="1"/>
<line x1="1338.4" y1="505.0" x2="834.0" y2="796.2" stroke="#bfb7a8" stroke-width="0.25" stroke-linecap="round" opacity="0.3" pathLength="1"/>
<line x1="1374.4" y1="525.8" x2="870.1" y2="817.0" stroke="#bfb7a8" stroke-width="0.25" stroke-linecap="round" opacity="0.3" pathLength="1"/>
<line x1="1410.5" y1="546.6" x2="906.1" y2="837.8" stroke="#bfb7a8" stroke-width="0.25" stroke-linecap="round" opacity="0.3" pathLength="1"/>
<line x1="1446.5" y1="567.4" x2="942.1" y2="858.6" stroke="#bfb7a8" stroke-width="0.25" stroke-linecap="round" opacity="0.3" pathLength="1"/>
<line x1="1482.5" y1="588.2" x2="978.1" y2="879.4" stroke="#bfb7a8" stroke-width="0.25" stroke-linecap="round" opacity="0.3" pathLength="1"/>
<line x1="1518.5" y1="609.0" x2="1014.2" y2="900.2" stroke="#bfb7a8" stroke-width="0.25" stroke-linecap="round" opacity="0.3" pathLength="1"/>
<line x1="1554.6" y1="629.8" x2="1050.2" y2="921.0" stroke="#bfb7a8" stroke-width="0.25" stroke-linecap="round" opacity="0.3" pathLength="1"/>
<line x1="1590.6" y1="650.6" x2="1086.2" y2="941.8" stroke="#bfb7a8" stroke-width="0.25" stroke-linecap="round" opacity="0.3" pathLength="1"/>
<polygon points="311.7,432.2 1140.3,910.6 1086.2,941.8 257.6,463.4" fill="#3a342b" stroke="#bfb7a8" stroke-width="0.8" stroke-linejoin="round" opacity="1" pathLength="1"/>
<polygon points="924.1,213.8 1338.4,453.0 1068.2,609.0 653.9,369.8" fill="#332d25" stroke="#f6f2ea" stroke-width="1.3" stroke-linejoin="round" opacity="1" pathLength="1"/>
<polygon points="1338.4,609.0 1068.2,765.0 1068.2,609.0 1338.4,453.0" fill="#2f2a23" stroke="#f6f2ea" stroke-width="1.3" stroke-linejoin="round" opacity="1" pathLength="1"/>
<polygon points="653.9,525.8 1068.2,765.0 1068.2,609.0 653.9,369.8" fill="#2f2a23" stroke="#f6f2ea" stroke-width="1.3" stroke-linejoin="round" opacity="1" pathLength="1"/>
<line x1="1338.4" y1="598.6" x2="1068.2" y2="754.6" stroke="#bfb7a8" stroke-width="0.3" stroke-linecap="round" opacity="0.45" pathLength="1"/>
<line x1="1338.4" y1="588.2" x2="1068.2" y2="744.2" stroke="#bfb7a8" stroke-width="0.3" stroke-linecap="round" opacity="0.45" pathLength="1"/>
<line x1="1338.4" y1="577.8" x2="1068.2" y2="733.8" stroke="#bfb7a8" stroke-width="0.3" stroke-linecap="round" opacity="0.45" pathLength="1"/>
<line x1="1338.4" y1="567.4" x2="1068.2" y2="723.4" stroke="#bfb7a8" stroke-width="0.3" stroke-linecap="round" opacity="0.45" pathLength="1"/>
<line x1="1338.4" y1="557.0" x2="1068.2" y2="713.0" stroke="#bfb7a8" stroke-width="0.3" stroke-linecap="round" opacity="0.45" pathLength="1"/>
<line x1="1338.4" y1="546.6" x2="1068.2" y2="702.6" stroke="#bfb7a8" stroke-width="0.3" stroke-linecap="round" opacity="0.45" pathLength="1"/>
<line x1="1338.4" y1="536.2" x2="1068.2" y2="692.2" stroke="#bfb7a8" stroke-width="0.3" stroke-linecap="round" opacity="0.45" pathLength="1"/>
<line x1="1338.4" y1="525.8" x2="1068.2" y2="681.8" stroke="#bfb7a8" stroke-width="0.3" stroke-linecap="round" opacity="0.45" pathLength="1"/>
<line x1="1338.4" y1="515.4" x2="1068.2" y2="671.4" stroke="#bfb7a8" stroke-width="0.3" stroke-linecap="round" opacity="0.45" pathLength="1"/>
<line x1="1338.4" y1="505.0" x2="1068.2" y2="661.0" stroke="#bfb7a8" stroke-width="0.3" stroke-linecap="round" opacity="0.45" pathLength="1"/>
<line x1="1338.4" y1="494.6" x2="1068.2" y2="650.6" stroke="#bfb7a8" stroke-width="0.3" stroke-linecap="round" opacity="0.45" pathLength="1"/>
<line x1="1338.4" y1="484.2" x2="1068.2" y2="640.2" stroke="#bfb7a8" stroke-width="0.3" stroke-linecap="round" opacity="0.45" pathLength="1"/>
<line x1="1338.4" y1="473.8" x2="1068.2" y2="629.8" stroke="#bfb7a8" stroke-width="0.3" stroke-linecap="round" opacity="0.45" pathLength="1"/>
<line x1="1338.4" y1="463.4" x2="1068.2" y2="619.4" stroke="#bfb7a8" stroke-width="0.3" stroke-linecap="round" opacity="0.45" pathLength="1"/>
<line x1="671.9" y1="536.2" x2="671.9" y2="380.2" stroke="#bfb7a8" stroke-width="0.3" stroke-linecap="round" opacity="0.45" pathLength="1"/>
<line x1="698.9" y1="551.8" x2="698.9" y2="395.8" stroke="#bfb7a8" stroke-width="0.3" stroke-linecap="round" opacity="0.45" pathLength="1"/>
<line x1="726.0" y1="567.4" x2="726.0" y2="411.4" stroke="#bfb7a8" stroke-width="0.3" stroke-linecap="round" opacity="0.45" pathLength="1"/>
<line x1="753.0" y1="583.0" x2="753.0" y2="427.0" stroke="#bfb7a8" stroke-width="0.3" stroke-linecap="round" opacity="0.45" pathLength="1"/>
<line x1="780.0" y1="598.6" x2="780.0" y2="442.6" stroke="#bfb7a8" stroke-width="0.3" stroke-linecap="round" opacity="0.45" pathLength="1"/>
<line x1="807.0" y1="614.2" x2="807.0" y2="458.2" stroke="#bfb7a8" stroke-width="0.3" stroke-linecap="round" opacity="0.45" pathLength="1"/>
<line x1="834.0" y1="629.8" x2="834.0" y2="473.8" stroke="#bfb7a8" stroke-width="0.3" stroke-linecap="round" opacity="0.45" pathLength="1"/>
<line x1="861.1" y1="645.4" x2="861.1" y2="489.4" stroke="#bfb7a8" stroke-width="0.3" stroke-linecap="round" opacity="0.45" pathLength="1"/>
<line x1="888.1" y1="661.0" x2="888.1" y2="505.0" stroke="#bfb7a8" stroke-width="0.3" stroke-linecap="round" opacity="0.45" pathLength="1"/>
<line x1="915.1" y1="676.6" x2="915.1" y2="520.6" stroke="#bfb7a8" stroke-width="0.3" stroke-linecap="round" opacity="0.45" pathLength="1"/>
<line x1="942.1" y1="692.2" x2="942.1" y2="536.2" stroke="#bfb7a8" stroke-width="0.3" stroke-linecap="round" opacity="0.45" pathLength="1"/>
<line x1="969.1" y1="707.8" x2="969.1" y2="551.8" stroke="#bfb7a8" stroke-width="0.3" stroke-linecap="round" opacity="0.45" pathLength="1"/>
<line x1="996.2" y1="723.4" x2="996.2" y2="567.4" stroke="#bfb7a8" stroke-width="0.3" stroke-linecap="round" opacity="0.45" pathLength="1"/>
<line x1="1023.2" y1="739.0" x2="1023.2" y2="583.0" stroke="#bfb7a8" stroke-width="0.3" stroke-linecap="round" opacity="0.45" pathLength="1"/>
<line x1="1050.2" y1="754.6" x2="1050.2" y2="598.6" stroke="#bfb7a8" stroke-width="0.3" stroke-linecap="round" opacity="0.45" pathLength="1"/>
<path d="M 744.0 577.8 Q 861.1 511.8 978.1 713.0" fill="none" stroke="#d79a73" stroke-width="1.4" stroke-dasharray="7 5" pathLength="1"/>
<text x="859.3" y="596.8" font-family="Helvetica, Arial, sans-serif" font-size="10" fill="#d79a73" text-anchor="middle" font-weight="600" letter-spacing="1.5">ANA TANK &amp; TÜNEL (İÇ)</text>
<polygon points="599.9,297.0 780.0,401.0 635.9,484.2 455.8,380.2" fill="#332d25" stroke="#f6f2ea" stroke-width="1.3" stroke-linejoin="round" opacity="1" pathLength="1"/>
<polygon points="780.0,473.8 635.9,557.0 635.9,484.2 780.0,401.0" fill="#354547" stroke="#f6f2ea" stroke-width="1.3" stroke-linejoin="round" opacity="1" pathLength="1"/>
<polygon points="455.8,453.0 635.9,557.0 635.9,484.2 455.8,380.2" fill="#354547" stroke="#f6f2ea" stroke-width="1.3" stroke-linejoin="round" opacity="1" pathLength="1"/>
<line x1="464.8" y1="458.2" x2="464.8" y2="385.4" stroke="#bfb7a8" stroke-width="0.5" stroke-linecap="round" opacity="0.7" pathLength="1"/>
<line x1="482.8" y1="468.6" x2="482.8" y2="395.8" stroke="#bfb7a8" stroke-width="0.5" stroke-linecap="round" opacity="0.7" pathLength="1"/>
<line x1="500.8" y1="479.0" x2="500.8" y2="406.2" stroke="#bfb7a8" stroke-width="0.5" stroke-linecap="round" opacity="0.7" pathLength="1"/>
<line x1="518.8" y1="489.4" x2="518.8" y2="416.6" stroke="#bfb7a8" stroke-width="0.5" stroke-linecap="round" opacity="0.7" pathLength="1"/>
<line x1="536.8" y1="499.8" x2="536.8" y2="427.0" stroke="#bfb7a8" stroke-width="0.5" stroke-linecap="round" opacity="0.7" pathLength="1"/>
<line x1="554.8" y1="510.2" x2="554.8" y2="437.4" stroke="#bfb7a8" stroke-width="0.5" stroke-linecap="round" opacity="0.7" pathLength="1"/>
<line x1="572.8" y1="520.6" x2="572.8" y2="447.8" stroke="#bfb7a8" stroke-width="0.5" stroke-linecap="round" opacity="0.7" pathLength="1"/>
<line x1="590.9" y1="531.0" x2="590.9" y2="458.2" stroke="#bfb7a8" stroke-width="0.5" stroke-linecap="round" opacity="0.7" pathLength="1"/>
<line x1="608.9" y1="541.4" x2="608.9" y2="468.6" stroke="#bfb7a8" stroke-width="0.5" stroke-linecap="round" opacity="0.7" pathLength="1"/>
<line x1="626.9" y1="551.8" x2="626.9" y2="479.0" stroke="#bfb7a8" stroke-width="0.5" stroke-linecap="round" opacity="0.7" pathLength="1"/>
<line x1="771.0" y1="479.0" x2="771.0" y2="406.2" stroke="#bfb7a8" stroke-width="0.5" stroke-linecap="round" opacity="0.7" pathLength="1"/>
<line x1="753.0" y1="489.4" x2="753.0" y2="416.6" stroke="#bfb7a8" stroke-width="0.5" stroke-linecap="round" opacity="0.7" pathLength="1"/>
<line x1="735.0" y1="499.8" x2="735.0" y2="427.0" stroke="#bfb7a8" stroke-width="0.5" stroke-linecap="round" opacity="0.7" pathLength="1"/>
<line x1="717.0" y1="510.2" x2="717.0" y2="437.4" stroke="#bfb7a8" stroke-width="0.5" stroke-linecap="round" opacity="0.7" pathLength="1"/>
<line x1="698.9" y1="520.6" x2="698.9" y2="447.8" stroke="#bfb7a8" stroke-width="0.5" stroke-linecap="round" opacity="0.7" pathLength="1"/>
<line x1="680.9" y1="531.0" x2="680.9" y2="458.2" stroke="#bfb7a8" stroke-width="0.5" stroke-linecap="round" opacity="0.7" pathLength="1"/>
<line x1="662.9" y1="541.4" x2="662.9" y2="468.6" stroke="#bfb7a8" stroke-width="0.5" stroke-linecap="round" opacity="0.7" pathLength="1"/>
<line x1="644.9" y1="551.8" x2="644.9" y2="479.0" stroke="#bfb7a8" stroke-width="0.5" stroke-linecap="round" opacity="0.7" pathLength="1"/>
<line x1="455.8" y1="416.6" x2="635.9" y2="520.6" stroke="#bfb7a8" stroke-width="0.5" stroke-linecap="round" opacity="0.7" pathLength="1"/>
<polygon points="437.7,365.6 653.9,490.4 617.9,511.2 401.7,386.4" fill="#2a251e" stroke="#f6f2ea" stroke-width="1" stroke-linejoin="round" opacity="1" pathLength="1"/>
<polygon points="924.1,254.9 978.1,286.1 780.0,400.5 726.0,369.3" fill="#2a383a" stroke="#bfb7a8" stroke-width="0.8" stroke-linejoin="round" opacity="1" pathLength="1"/>
<polygon points="1050.2,327.7 1104.2,358.9 906.1,473.3 852.1,442.1" fill="#2a383a" stroke="#bfb7a8" stroke-width="0.8" stroke-linejoin="round" opacity="1" pathLength="1"/>
<polygon points="1176.3,400.5 1230.3,431.7 1032.2,546.1 978.1,514.9" fill="#2a383a" stroke="#bfb7a8" stroke-width="0.8" stroke-linejoin="round" opacity="1" pathLength="1"/>
<ellipse cx="726.0" cy="629.8" rx="56.2" ry="15.6" fill="#2f4a52" stroke="#f6f2ea" stroke-width="1" pathLength="1"/>
<line x1="653.9" y1="276.2" x2="653.9" y2="234.6" stroke="#bfb7a8" stroke-width="1.2" stroke-linecap="round" opacity="1" pathLength="1"/>
<ellipse cx="653.9" cy="222.1" rx="22.5" ry="18.7" fill="#33402c" stroke="#bfb7a8" stroke-width="0.9" pathLength="1"/>
<ellipse cx="646.4" cy="217.1" rx="13.7" ry="11.2" fill="#28321f" stroke="#bfb7a8" stroke-width="0.7" pathLength="1"/>
<line x1="473.8" y1="380.2" x2="473.8" y2="338.6" stroke="#bfb7a8" stroke-width="1.2" stroke-linecap="round" opacity="1" pathLength="1"/>
<ellipse cx="473.8" cy="326.1" rx="22.5" ry="18.7" fill="#33402c" stroke="#bfb7a8" stroke-width="0.9" pathLength="1"/>
<ellipse cx="466.3" cy="321.1" rx="13.7" ry="11.2" fill="#28321f" stroke="#bfb7a8" stroke-width="0.7" pathLength="1"/>
<line x1="1050.2" y1="817.0" x2="1050.2" y2="775.4" stroke="#bfb7a8" stroke-width="1.2" stroke-linecap="round" opacity="1" pathLength="1"/>
<ellipse cx="1050.2" cy="762.9" rx="22.5" ry="18.7" fill="#33402c" stroke="#bfb7a8" stroke-width="0.9" pathLength="1"/>
<ellipse cx="1042.7" cy="757.9" rx="13.7" ry="11.2" fill="#28321f" stroke="#bfb7a8" stroke-width="0.7" pathLength="1"/>
<line x1="1302.4" y1="754.6" x2="1302.4" y2="713.0" stroke="#bfb7a8" stroke-width="1.2" stroke-linecap="round" opacity="1" pathLength="1"/>
<ellipse cx="1302.4" cy="700.5" rx="22.5" ry="18.7" fill="#33402c" stroke="#bfb7a8" stroke-width="0.9" pathLength="1"/>
<ellipse cx="1294.9" cy="695.5" rx="13.7" ry="11.2" fill="#28321f" stroke="#bfb7a8" stroke-width="0.7" pathLength="1"/>
<line x1="798.0" y1="338.6" x2="798.0" y2="297.0" stroke="#bfb7a8" stroke-width="1.2" stroke-linecap="round" opacity="1" pathLength="1"/>
<ellipse cx="798.0" cy="284.5" rx="22.5" ry="18.7" fill="#33402c" stroke="#bfb7a8" stroke-width="0.9" pathLength="1"/>
<ellipse cx="790.5" cy="279.5" rx="13.7" ry="11.2" fill="#28321f" stroke="#bfb7a8" stroke-width="0.7" pathLength="1"/>
<line x1="861.1" y1="718.2" x2="861.1" y2="676.6" stroke="#bfb7a8" stroke-width="1.2" stroke-linecap="round" opacity="1" pathLength="1"/>
<ellipse cx="861.1" cy="664.1" rx="22.5" ry="18.7" fill="#33402c" stroke="#bfb7a8" stroke-width="0.9" pathLength="1"/>
<ellipse cx="853.6" cy="659.1" rx="13.7" ry="11.2" fill="#28321f" stroke="#bfb7a8" stroke-width="0.7" pathLength="1"/>
<line x1="536.8" y1="531.0" x2="536.8" y2="513.3" stroke="#f6f2ea" stroke-width="1.6" stroke-linecap="round" opacity="1" pathLength="1"/>
<circle cx="536.8" cy="511.2" r="3.0" fill="#f6f2ea" stroke="#f6f2ea" stroke-width="1" pathLength="1"/>
<line x1="942.1" y1="754.6" x2="942.1" y2="736.9" stroke="#f6f2ea" stroke-width="1.6" stroke-linecap="round" opacity="1" pathLength="1"/>
<circle cx="942.1" cy="734.8" r="3.0" fill="#f6f2ea" stroke="#f6f2ea" stroke-width="1" pathLength="1"/>
<text x="996.2" y="380.4" font-family="Helvetica, Arial, sans-serif" font-size="13" fill="#d79a73" text-anchor="middle" font-weight="600" letter-spacing="1.5">AKVARYUM HOLÜ · 46 × 30 m</text>
<text x="617.9" y="357.6" font-family="Helvetica, Arial, sans-serif" font-size="11" fill="#d79a73" text-anchor="middle" font-weight="600" letter-spacing="1.5">GİRİŞ &amp; FUAYE</text>
<circle cx="1500.0" cy="90.0" r="18.0" fill="none" stroke="#bfb7a8" stroke-width="1" pathLength="1"/>
<polygon points="1500.0,74.0 1494.0,94.0 1500.0,90.0 1506.0,94.0" fill="#d79a73" stroke="#f6f2ea" stroke-width="1" stroke-linejoin="round" opacity="1" pathLength="1"/>
<text x="1500.0" y="66.0" font-family="Helvetica, Arial, sans-serif" font-size="11" fill="#bfb7a8" text-anchor="middle" font-weight="600" letter-spacing="0">K</text>
<text x="60.0" y="70.0" font-family="Helvetica, Arial, sans-serif" font-size="13" fill="#d79a73" text-anchor="start" font-weight="600" letter-spacing="3">AKVARYUM MİMARLIĞI</text>
<text x="60.0" y="108.0" font-family="Georgia, 'Times New Roman', serif" font-size="30" fill="#f6f2ea" text-anchor="start" font-weight="400" letter-spacing="0">Yapı Kütlesi — Aksonometri</text>
<text x="60.0" y="134.0" font-family="Helvetica, Arial, sans-serif" font-size="13" fill="#bfb7a8" text-anchor="start" font-weight="400" letter-spacing="0.3">Kapalı tank holü · cam giriş fuayesi · çatı ışıklıkları · plaza ve su ögesi · konsept eskiz</text>
<rect x="1096.0" y="782.0" width="470.0" height="86.0" rx="0" fill="#1d1915" stroke="#d79a73" stroke-width="1.2" pathLength="1"/>
<line x1="1170.0" y1="782.0" x2="1170.0" y2="868.0" stroke="#d79a73" stroke-width="1" stroke-linecap="round" opacity="1" pathLength="1"/>
<text x="1133.0" y="837.0" font-family="Georgia, 'Times New Roman', serif" font-size="30" fill="#d79a73" text-anchor="middle" font-weight="700" letter-spacing="0">HMİ</text>
<text x="1188.0" y="812.0" font-family="Georgia, 'Times New Roman', serif" font-size="19" fill="#f6f2ea" text-anchor="start" font-weight="400" letter-spacing="0">Tünel Akvaryum</text>
<text x="1188.0" y="835.0" font-family="Helvetica, Arial, sans-serif" font-size="10.5" fill="#d79a73" text-anchor="start" font-weight="600" letter-spacing="2.4">KÜTLE AKSONOMETRISI · 03/03</text>
<text x="1188.0" y="855.0" font-family="Helvetica, Arial, sans-serif" font-size="10" fill="#bfb7a8" text-anchor="start" font-weight="400" letter-spacing="0.4">Konsept eskiz · Ölçeksiz · Haşimoğlu Mimarlık · 2026</text>
</svg>