<svg xmlns="http://www.w3.org/2000/svg" viewBox="0 0 1600 900" width="1600" height="900" role="img" aria-label="Sağlık Merkezi Dubai — güney cephesi konsept eskizi">
<title>Sağlık Merkezi Dubai — güney cephesi konsept eskizi</title>
<rect width="1600" height="900" fill="#f4f1eb"/>
<line x1="60.0" y1="640.0" x2="1540.0" y2="640.0" stroke="#111310" stroke-width="2" stroke-linecap="round" opacity="1" pathLength="1"/>
<line x1="60.0" y1="640.0" x2="52.0" y2="648.0" stroke="#6e716b" stroke-width="0.7" stroke-linecap="round" opacity="0.6" pathLength="1"/>
<line x1="74.0" y1="640.0" x2="66.0" y2="648.0" stroke="#6e716b" stroke-width="0.7" stroke-linecap="round" opacity="0.6" pathLength="1"/>
<line x1="88.0" y1="640.0" x2="80.0" y2="648.0" stroke="#6e716b" stroke-width="0.7" stroke-linecap="round" opacity="0.6" pathLength="1"/>
<line x1="102.0" y1="640.0" x2="94.0" y2="648.0" stroke="#6e716b" stroke-width="0.7" stroke-linecap="round" opacity="0.6" pathLength="1"/>
<line x1="116.0" y1="640.0" x2="108.0" y2="648.0" stroke="#6e716b" stroke-width="0.7" stroke-linecap="round" opacity="0.6" pathLength="1"/>
<line x1="130.0" y1="640.0" x2="122.0" y2="648.0" stroke="#6e716b" stroke-width="0.7" stroke-linecap="round" opacity="0.6" pathLength="1"/>
<line x1="144.0" y1="640.0" x2="136.0" y2="648.0" stroke="#6e716b" stroke-width="0.7" stroke-linecap="round" opacity="0.6" pathLength="1"/>
<line x1="158.0" y1="640.0" x2="150.0" y2="648.0" stroke="#6e716b" stroke-width="0.7" stroke-linecap="round" opacity="0.6" pathLength="1"/>
<line x1="172.0" y1="640.0" x2="164.0" y2="648.0" stroke="#6e716b" stroke-width="0.7" stroke-linecap="round" opacity="0.6" pathLength="1"/>
<line x1="186.0" y1="640.0" x2="178.0" y2="648.0" stroke="#6e716b" stroke-width="0.7" stroke-linecap="round" opacity="0.6" pathLength="1"/>
<line x1="200.0" y1="640.0" x2="192.0" y2="648.0" stroke="#6e716b" stroke-width="0.7" stroke-linecap="round" opacity="0.6" pathLength="1"/>
<line x1="214.0" y1="640.0" x2="206.0" y2="648.0" stroke="#6e716b" stroke-width="0.7" stroke-linecap="round" opacity="0.6" pathLength="1"/>
<line x1="228.0" y1="640.0" x2="220.0" y2="648.0" stroke="#6e716b" stroke-width="0.7" stroke-linecap="round" opacity="0.6" pathLength="1"/>
<line x1="242.0" y1="640.0" x2="234.0" y2="648.0" stroke="#6e716b" stroke-width="0.7" stroke-linecap="round" opacity="0.6" pathLength="1"/>
<line x1="256.0" y1="640.0" x2="248.0" y2="648.0" stroke="#6e716b" stroke-width="0.7" stroke-linecap="round" opacity="0.6" pathLength="1"/>
<line x1="270.0" y1="640.0" x2="262.0" y2="648.0" stroke="#6e716b" stroke-width="0.7" stroke-linecap="round" opacity="0.6" pathLength="1"/>
<line x1="284.0" y1="640.0" x2="276.0" y2="648.0" stroke="#6e716b" stroke-width="0.7" stroke-linecap="round" opacity="0.6" pathLength="1"/>
<line x1="298.0" y1="640.0" x2="290.0" y2="648.0" stroke="#6e716b" stroke-width="0.7" stroke-linecap="round" opacity="0.6" pathLength="1"/>
<line x1="312.0" y1="640.0" x2="304.0" y2="648.0" stroke="#6e716b" stroke-width="0.7" stroke-linecap="round" opacity="0.6" pathLength="1"/>
<line x1="326.0" y1="640.0" x2="318.0" y2="648.0" stroke="#6e716b" stroke-width="0.7" stroke-linecap="round" opacity="0.6" pathLength="1"/>
<line x1="340.0" y1="640.0" x2="332.0" y2="648.0" stroke="#6e716b" stroke-width="0.7" stroke-linecap="round" opacity="0.6" pathLength="1"/>
<line x1="354.0" y1="640.0" x2="346.0" y2="648.0" stroke="#6e716b" stroke-width="0.7" stroke-linecap="round" opacity="0.6" pathLength="1"/>
<line x1="368.0" y1="640.0" x2="360.0" y2="648.0" stroke="#6e716b" stroke-width="0.7" stroke-linecap="round" opacity="0.6" pathLength="1"/>
<line x1="382.0" y1="640.0" x2="374.0" y2="648.0" stroke="#6e716b" stroke-width="0.7" stroke-linecap="round" opacity="0.6" pathLength="1"/>
<line x1="396.0" y1="640.0" x2="388.0" y2="648.0" stroke="#6e716b" stroke-width="0.7" stroke-linecap="round" opacity="0.6" pathLength="1"/>
<line x1="410.0" y1="640.0" x2="402.0" y2="648.0" stroke="#6e716b" stroke-width="0.7" stroke-linecap="round" opacity="0.6" pathLength="1"/>
<line x1="424.0" y1="640.0" x2="416.0" y2="648.0" stroke="#6e716b" stroke-width="0.7" stroke-linecap="round" opacity="0.6" pathLength="1"/>
<line x1="438.0" y1="640.0" x2="430.0" y2="648.0" stroke="#6e716b" stroke-width="0.7" stroke-linecap="round" opacity="0.6" pathLength="1"/>
<line x1="452.0" y1="640.0" x2="444.0" y2="648.0" stroke="#6e716b" stroke-width="0.7" stroke-linecap="round" opacity="0.6" pathLength="1"/>
<line x1="466.0" y1="640.0" x2="458.0" y2="648.0" stroke="#6e716b" stroke-width="0.7" stroke-linecap="round" opacity="0.6" pathLength="1"/>
<line x1="480.0" y1="640.0" x2="472.0" y2="648.0" stroke="#6e716b" stroke-width="0.7" stroke-linecap="round" opacity="0.6" pathLength="1"/>
<line x1="494.0" y1="640.0" x2="486.0" y2="648.0" stroke="#6e716b" stroke-width="0.7" stroke-linecap="round" opacity="0.6" pathLength="1"/>
<line x1="508.0" y1="640.0" x2="500.0" y2="648.0" stroke="#6e716b" stroke-width="0.7" stroke-linecap="round" opacity="0.6" pathLength="1"/>
<line x1="522.0" y1="640.0" x2="514.0" y2="648.0" stroke="#6e716b" stroke-width="0.7" stroke-linecap="round" opacity="0.6" pathLength="1"/>
<line x1="536.0" y1="640.0" x2="528.0" y2="648.0" stroke="#6e716b" stroke-width="0.7" stroke-linecap="round" opacity="0.6" pathLength="1"/>
<line x1="550.0" y1="640.0" x2="542.0" y2="648.0" stroke="#6e716b" stroke-width="0.7" stroke-linecap="round" opacity="0.6" pathLength="1"/>
<line x1="564.0" y1="640.0" x2="556.0" y2="648.0" stroke="#6e716b" stroke-width="0.7" stroke-linecap="round" opacity="0.6" pathLength="1"/>
<line x1="578.0" y1="640.0" x2="570.0" y2="648.0" stroke="#6e716b" stroke-width="0.7" stroke-linecap="round" opacity="0.6" pathLength="1"/>
<line x1="592.0" y1="640.0" x2="584.0" y2="648.0" stroke="#6e716b" stroke-width="0.7" stroke-linecap="round" opacity="0.6" pathLength="1"/>
<line x1="606.0" y1="640.0" x2="598.0" y2="648.0" stroke="#6e716b" stroke-width="0.7" stroke-linecap="round" opacity="0.6" pathLength="1"/>
<line x1="620.0" y1="640.0" x2="612.0" y2="648.0" stroke="#6e716b" stroke-width="0.7" stroke-linecap="round" opacity="0.6" pathLength="1"/>
<line x1="634.0" y1="640.0" x2="626.0" y2="648.0" stroke="#6e716b" stroke-width="0.7" stroke-linecap="round" opacity="0.6" pathLength="1"/>
<line x1="648.0" y1="640.0" x2="640.0" y2="648.0" stroke="#6e716b" stroke-width="0.7" stroke-linecap="round" opacity="0.6" pathLength="1"/>
<line x1="662.0" y1="640.0" x2="654.0" y2="648.0" stroke="#6e716b" stroke-width="0.7" stroke-linecap="round" opacity="0.6" pathLength="1"/>
<line x1="676.0" y1="640.0" x2="668.0" y2="648.0" stroke="#6e716b" stroke-width="0.7" stroke-linecap="round" opacity="0.6" pathLength="1"/>
<line x1="690.0" y1="640.0" x2="682.0" y2="648.0" stroke="#6e716b" stroke-width="0.7" stroke-linecap="round" opacity="0.6" pathLength="1"/>
<line x1="704.0" y1="640.0" x2="696.0" y2="648.0" stroke="#6e716b" stroke-width="0.7" stroke-linecap="round" opacity="0.6" pathLength="1"/>
<line x1="718.0" y1="640.0" x2="710.0" y2="648.0" stroke="#6e716b" stroke-width="0.7" stroke-linecap="round" opacity="0.6" pathLength="1"/>
<line x1="732.0" y1="640.0" x2="724.0" y2="648.0" stroke="#6e716b" stroke-width="0.7" stroke-linecap="round" opacity="0.6" pathLength="1"/>
<line x1="746.0" y1="640.0" x2="738.0" y2="648.0" stroke="#6e716b" stroke-width="0.7" stroke-linecap="round" opacity="0.6" pathLength="1"/>
<line x1="760.0" y1="640.0" x2="752.0" y2="648.0" stroke="#6e716b" stroke-width="0.7" stroke-linecap="round" opacity="0.6" pathLength="1"/>
<line x1="774.0" y1="640.0" x2="766.0" y2="648.0" stroke="#6e716b" stroke-width="0.7" stroke-linecap="round" opacity="0.6" pathLength="1"/>
<line x1="788.0" y1="640.0" x2="780.0" y2="648.0" stroke="#6e716b" stroke-width="0.7" stroke-linecap="round" opacity="0.6" pathLength="1"/>
<line x1="802.0" y1="640.0" x2="794.0" y2="648.0" stroke="#6e716b" stroke-width="0.7" stroke-linecap="round" opacity="0.6" pathLength="1"/>
<line x1="816.0" y1="640.0" x2="808.0" y2="648.0" stroke="#6e716b" stroke-width="0.7" stroke-linecap="round" opacity="0.6" pathLength="1"/>
<line x1="830.0" y1="640.0" x2="822.0" y2="648.0" stroke="#6e716b" stroke-width="0.7" stroke-linecap="round" opacity="0.6" pathLength="1"/>
<line x1="844.0" y1="640.0" x2="836.0" y2="648.0" stroke="#6e716b" stroke-width="0.7" stroke-linecap="round" opacity="0.6" pathLength="1"/>
<line x1="858.0" y1="640.0" x2="850.0" y2="648.0" stroke="#6e716b" stroke-width="0.7" stroke-linecap="round" opacity="0.6" pathLength="1"/>
<line x1="872.0" y1="640.0" x2="864.0" y2="648.0" stroke="#6e716b" stroke-width="0.7" stroke-linecap="round" opacity="0.6" pathLength="1"/>
<line x1="886.0" y1="640.0" x2="878.0" y2="648.0" stroke="#6e716b" stroke-width="0.7" stroke-linecap="round" opacity="0.6" pathLength="1"/>
<line x1="900.0" y1="640.0" x2="892.0" y2="648.0" stroke="#6e716b" stroke-width="0.7" stroke-linecap="round" opacity="0.6" pathLength="1"/>
<line x1="914.0" y1="640.0" x2="906.0" y2="648.0" stroke="#6e716b" stroke-width="0.7" stroke-linecap="round" opacity="0.6" pathLength="1"/>
<line x1="928.0" y1="640.0" x2="920.0" y2="648.0" stroke="#6e716b" stroke-width="0.7" stroke-linecap="round" opacity="0.6" pathLength="1"/>
<line x1="942.0" y1="640.0" x2="934.0" y2="648.0" stroke="#6e716b" stroke-width="0.7" stroke-linecap="round" opacity="0.6" pathLength="1"/>
<line x1="956.0" y1="640.0" x2="948.0" y2="648.0" stroke="#6e716b" stroke-width="0.7" stroke-linecap="round" opacity="0.6" pathLength="1"/>
<line x1="970.0" y1="640.0" x2="962.0" y2="648.0" stroke="#6e716b" stroke-width="0.7" stroke-linecap="round" opacity="0.6" pathLength="1"/>
<line x1="984.0" y1="640.0" x2="976.0" y2="648.0" stroke="#6e716b" stroke-width="0.7" stroke-linecap="round" opacity="0.6" pathLength="1"/>
<line x1="998.0" y1="640.0" x2="990.0" y2="648.0" stroke="#6e716b" stroke-width="0.7" stroke-linecap="round" opacity="0.6" pathLength="1"/>
<line x1="1012.0" y1="640.0" x2="1004.0" y2="648.0" stroke="#6e716b" stroke-width="0.7" stroke-linecap="round" opacity="0.6" pathLength="1"/>
<line x1="1026.0" y1="640.0" x2="1018.0" y2="648.0" stroke="#6e716b" stroke-width="0.7" stroke-linecap="round" opacity="0.6" pathLength="1"/>
<line x1="1040.0" y1="640.0" x2="1032.0" y2="648.0" stroke="#6e716b" stroke-width="0.7" stroke-linecap="round" opacity="0.6" pathLength="1"/>
<line x1="1054.0" y1="640.0" x2="1046.0" y2="648.0" stroke="#6e716b" stroke-width="0.7" stroke-linecap="round" opacity="0.6" pathLength="1"/>
<line x1="1068.0" y1="640.0" x2="1060.0" y2="648.0" stroke="#6e716b" stroke-width="0.7" stroke-linecap="round" opacity="0.6" pathLength="1"/>
<line x1="1082.0" y1="640.0" x2="1074.0" y2="648.0" stroke="#6e716b" stroke-width="0.7" stroke-linecap="round" opacity="0.6" pathLength="1"/>
<line x1="1096.0" y1="640.0" x2="1088.0" y2="648.0" stroke="#6e716b" stroke-width="0.7" stroke-linecap="round" opacity="0.6" pathLength="1"/>
<line x1="1110.0" y1="640.0" x2="1102.0" y2="648.0" stroke="#6e716b" stroke-width="0.7" stroke-linecap="round" opacity="0.6" pathLength="1"/>
<line x1="1124.0" y1="640.0" x2="1116.0" y2="648.0" stroke="#6e716b" stroke-width="0.7" stroke-linecap="round" opacity="0.6" pathLength="1"/>
<line x1="1138.0" y1="640.0" x2="1130.0" y2="648.0" stroke="#6e716b" stroke-width="0.7" stroke-linecap="round" opacity="0.6" pathLength="1"/>
<line x1="1152.0" y1="640.0" x2="1144.0" y2="648.0" stroke="#6e716b" stroke-width="0.7" stroke-linecap="round" opacity="0.6" pathLength="1"/>
<line x1="1166.0" y1="640.0" x2="1158.0" y2="648.0" stroke="#6e716b" stroke-width="0.7" stroke-linecap="round" opacity="0.6" pathLength="1"/>
<line x1="1180.0" y1="640.0" x2="1172.0" y2="648.0" stroke="#6e716b" stroke-width="0.7" stroke-linecap="round" opacity="0.6" pathLength="1"/>
<line x1="1194.0" y1="640.0" x2="1186.0" y2="648.0" stroke="#6e716b" stroke-width="0.7" stroke-linecap="round" opacity="0.6" pathLength="1"/>
<line x1="1208.0" y1="640.0" x2="1200.0" y2="648.0" stroke="#6e716b" stroke-width="0.7" stroke-linecap="round" opacity="0.6" pathLength="1"/>
<line x1="1222.0" y1="640.0" x2="1214.0" y2="648.0" stroke="#6e716b" stroke-width="0.7" stroke-linecap="round" opacity="0.6" pathLength="1"/>
<line x1="1236.0" y1="640.0" x2="1228.0" y2="648.0" stroke="#6e716b" stroke-width="0.7" stroke-linecap="round" opacity="0.6" pathLength="1"/>
<line x1="1250.0" y1="640.0" x2="1242.0" y2="648.0" stroke="#6e716b" stroke-width="0.7" stroke-linecap="round" opacity="0.6" pathLength="1"/>
<line x1="1264.0" y1="640.0" x2="1256.0" y2="648.0" stroke="#6e716b" stroke-width="0.7" stroke-linecap="round" opacity="0.6" pathLength="1"/>
<line x1="1278.0" y1="640.0" x2="1270.0" y2="648.0" stroke="#6e716b" stroke-width="0.7" stroke-linecap="round" opacity="0.6" pathLength="1"/>
<line x1="1292.0" y1="640.0" x2="1284.0" y2="648.0" stroke="#6e716b" stroke-width="0.7" stroke-linecap="round" opacity="0.6" pathLength="1"/>
<line x1="1306.0" y1="640.0" x2="1298.0" y2="648.0" stroke="#6e716b" stroke-width="0.7" stroke-linecap="round" opacity="0.6" pathLength="1"/>
<line x1="1320.0" y1="640.0" x2="1312.0" y2="648.0" stroke="#6e716b" stroke-width="0.7" stroke-linecap="round" opacity="0.6" pathLength="1"/>
<line x1="1334.0" y1="640.0" x2="1326.0" y2="648.0" stroke="#6e716b" stroke-width="0.7" stroke-linecap="round" opacity="0.6" pathLength="1"/>
<line x1="1348.0" y1="640.0" x2="1340.0" y2="648.0" stroke="#6e716b" stroke-width="0.7" stroke-linecap="round" opacity="0.6" pathLength="1"/>
<line x1="1362.0" y1="640.0" x2="1354.0" y2="648.0" stroke="#6e716b" stroke-width="0.7" stroke-linecap="round" opacity="0.6" pathLength="1"/>
<line x1="1376.0" y1="640.0" x2="1368.0" y2="648.0" stroke="#6e716b" stroke-width="0.7" stroke-linecap="round" opacity="0.6" pathLength="1"/>
<line x1="1390.0" y1="640.0" x2="1382.0" y2="648.0" stroke="#6e716b" stroke-width="0.7" stroke-linecap="round" opacity="0.6" pathLength="1"/>
<line x1="1404.0" y1="640.0" x2="1396.0" y2="648.0" stroke="#6e716b" stroke-width="0.7" stroke-linecap="round" opacity="0.6" pathLength="1"/>
<line x1="1418.0" y1="640.0" x2="1410.0" y2="648.0" stroke="#6e716b" stroke-width="0.7" stroke-linecap="round" opacity="0.6" pathLength="1"/>
<line x1="1432.0" y1="640.0" x2="1424.0" y2="648.0" stroke="#6e716b" stroke-width="0.7" stroke-linecap="round" opacity="0.6" pathLength="1"/>
<line x1="1446.0" y1="640.0" x2="1438.0" y2="648.0" stroke="#6e716b" stroke-width="0.7" stroke-linecap="round" opacity="0.6" pathLength="1"/>
<line x1="1460.0" y1="640.0" x2="1452.0" y2="648.0" stroke="#6e716b" stroke-width="0.7" stroke-linecap="round" opacity="0.6" pathLength="1"/>
<line x1="1474.0" y1="640.0" x2="1466.0" y2="648.0" stroke="#6e716b" stroke-width="0.7" stroke-linecap="round" opacity="0.6" pathLength="1"/>
<line x1="1488.0" y1="640.0" x2="1480.0" y2="648.0" stroke="#6e716b" stroke-width="0.7" stroke-linecap="round" opacity="0.6" pathLength="1"/>
<line x1="1502.0" y1="640.0" x2="1494.0" y2="648.0" stroke="#6e716b" stroke-width="0.7" stroke-linecap="round" opacity="0.6" pathLength="1"/>
<line x1="1516.0" y1="640.0" x2="1508.0" y2="648.0" stroke="#6e716b" stroke-width="0.7" stroke-linecap="round" opacity="0.6" pathLength="1"/>
<line x1="1530.0" y1="640.0" x2="1522.0" y2="648.0" stroke="#6e716b" stroke-width="0.7" stroke-linecap="round" opacity="0.6" pathLength="1"/>
<rect x="200.0" y="514.0" width="1200.0" height="126.0" rx="0" fill="#e2dccf" stroke="#111310" stroke-width="1.3" pathLength="1"/>
<line x1="500.0" y1="640.0" x2="500.0" y2="514.0" stroke="#6e716b" stroke-width="0.35" stroke-linecap="round" opacity="0.55" pathLength="1"/>
<line x1="530.0" y1="640.0" x2="530.0" y2="514.0" stroke="#6e716b" stroke-width="0.35" stroke-linecap="round" opacity="0.55" pathLength="1"/>
<line x1="560.0" y1="640.0" x2="560.0" y2="514.0" stroke="#6e716b" stroke-width="0.35" stroke-linecap="round" opacity="0.55" pathLength="1"/>
<line x1="590.0" y1="640.0" x2="590.0" y2="514.0" stroke="#6e716b" stroke-width="0.35" stroke-linecap="round" opacity="0.55" pathLength="1"/>
<line x1="620.0" y1="640.0" x2="620.0" y2="514.0" stroke="#6e716b" stroke-width="0.35" stroke-linecap="round" opacity="0.55" pathLength="1"/>
<line x1="650.0" y1="640.0" x2="650.0" y2="514.0" stroke="#6e716b" stroke-width="0.35" stroke-linecap="round" opacity="0.55" pathLength="1"/>
<line x1="680.0" y1="640.0" x2="680.0" y2="514.0" stroke="#6e716b" stroke-width="0.35" stroke-linecap="round" opacity="0.55" pathLength="1"/>
<line x1="710.0" y1="640.0" x2="710.0" y2="514.0" stroke="#6e716b" stroke-width="0.35" stroke-linecap="round" opacity="0.55" pathLength="1"/>
<line x1="740.0" y1="640.0" x2="740.0" y2="514.0" stroke="#6e716b" stroke-width="0.35" stroke-linecap="round" opacity="0.55" pathLength="1"/>
<line x1="770.0" y1="640.0" x2="770.0" y2="514.0" stroke="#6e716b" stroke-width="0.35" stroke-linecap="round" opacity="0.55" pathLength="1"/>
<line x1="800.0" y1="640.0" x2="800.0" y2="514.0" stroke="#6e716b" stroke-width="0.35" stroke-linecap="round" opacity="0.55" pathLength="1"/>
<line x1="830.0" y1="640.0" x2="830.0" y2="514.0" stroke="#6e716b" stroke-width="0.35" stroke-linecap="round" opacity="0.55" pathLength="1"/>
<line x1="860.0" y1="640.0" x2="860.0" y2="514.0" stroke="#6e716b" stroke-width="0.35" stroke-linecap="round" opacity="0.55" pathLength="1"/>
<line x1="890.0" y1="640.0" x2="890.0" y2="514.0" stroke="#6e716b" stroke-width="0.35" stroke-linecap="round" opacity="0.55" pathLength="1"/>
<line x1="920.0" y1="640.0" x2="920.0" y2="514.0" stroke="#6e716b" stroke-width="0.35" stroke-linecap="round" opacity="0.55" pathLength="1"/>
<line x1="950.0" y1="640.0" x2="950.0" y2="514.0" stroke="#6e716b" stroke-width="0.35" stroke-linecap="round" opacity="0.55" pathLength="1"/>
<line x1="980.0" y1="640.0" x2="980.0" y2="514.0" stroke="#6e716b" stroke-width="0.35" stroke-linecap="round" opacity="0.55" pathLength="1"/>
<line x1="1010.0" y1="640.0" x2="1010.0" y2="514.0" stroke="#6e716b" stroke-width="0.35" stroke-linecap="round" opacity="0.55" pathLength="1"/>
<line x1="1040.0" y1="640.0" x2="1040.0" y2="514.0" stroke="#6e716b" stroke-width="0.35" stroke-linecap="round" opacity="0.55" pathLength="1"/>
<line x1="1070.0" y1="640.0" x2="1070.0" y2="514.0" stroke="#6e716b" stroke-width="0.35" stroke-linecap="round" opacity="0.55" pathLength="1"/>
<line x1="1100.0" y1="640.0" x2="1100.0" y2="514.0" stroke="#6e716b" stroke-width="0.35" stroke-linecap="round" opacity="0.55" pathLength="1"/>
<line x1="1130.0" y1="640.0" x2="1130.0" y2="514.0" stroke="#6e716b" stroke-width="0.35" stroke-linecap="round" opacity="0.55" pathLength="1"/>
<line x1="1160.0" y1="640.0" x2="1160.0" y2="514.0" stroke="#6e716b" stroke-width="0.35" stroke-linecap="round" opacity="0.55" pathLength="1"/>
<line x1="1190.0" y1="640.0" x2="1190.0" y2="514.0" stroke="#6e716b" stroke-width="0.35" stroke-linecap="round" opacity="0.55" pathLength="1"/>
<line x1="1220.0" y1="640.0" x2="1220.0" y2="514.0" stroke="#6e716b" stroke-width="0.35" stroke-linecap="round" opacity="0.55" pathLength="1"/>
<line x1="1250.0" y1="640.0" x2="1250.0" y2="514.0" stroke="#6e716b" stroke-width="0.35" stroke-linecap="round" opacity="0.55" pathLength="1"/>
<line x1="1280.0" y1="640.0" x2="1280.0" y2="514.0" stroke="#6e716b" stroke-width="0.35" stroke-linecap="round" opacity="0.55" pathLength="1"/>
<line x1="1310.0" y1="640.0" x2="1310.0" y2="514.0" stroke="#6e716b" stroke-width="0.35" stroke-linecap="round" opacity="0.55" pathLength="1"/>
<line x1="1340.0" y1="640.0" x2="1340.0" y2="514.0" stroke="#6e716b" stroke-width="0.35" stroke-linecap="round" opacity="0.55" pathLength="1"/>
<line x1="1370.0" y1="640.0" x2="1370.0" y2="514.0" stroke="#6e716b" stroke-width="0.35" stroke-linecap="round" opacity="0.55" pathLength="1"/>
<rect x="209.0" y="523.0" width="282.0" height="108.0" rx="0" fill="#c9d3d3" stroke="#111310" stroke-width="1" pathLength="1"/>
<line x1="279.5" y1="631.0" x2="279.5" y2="523.0" stroke="#6e716b" stroke-width="0.6" stroke-linecap="round" opacity="1" pathLength="1"/>
<line x1="350.0" y1="631.0" x2="350.0" y2="523.0" stroke="#6e716b" stroke-width="0.6" stroke-linecap="round" opacity="1" pathLength="1"/>
<line x1="420.5" y1="631.0" x2="420.5" y2="523.0" stroke="#6e716b" stroke-width="0.6" stroke-linecap="round" opacity="1" pathLength="1"/>
<line x1="209.0" y1="631.0" x2="209.0" y2="523.0" stroke="#b36f42" stroke-width="1.6" stroke-linecap="round" opacity="1" pathLength="1"/>
<line x1="491.0" y1="631.0" x2="491.0" y2="523.0" stroke="#b36f42" stroke-width="1.6" stroke-linecap="round" opacity="1" pathLength="1"/>
<rect x="560.0" y="538.0" width="90.0" height="72.0" rx="0" fill="#c9d3d3" stroke="#b36f42" stroke-width="2" pathLength="1"/>
<line x1="605.0" y1="610.0" x2="605.0" y2="538.0" stroke="#b36f42" stroke-width="1" stroke-linecap="round" opacity="1" pathLength="1"/>
<line x1="560.0" y1="574.0" x2="650.0" y2="574.0" stroke="#b36f42" stroke-width="1" stroke-linecap="round" opacity="1" pathLength="1"/>
<rect x="710.0" y="538.0" width="90.0" height="72.0" rx="0" fill="#c9d3d3" stroke="#b36f42" stroke-width="2" pathLength="1"/>
<line x1="755.0" y1="610.0" x2="755.0" y2="538.0" stroke="#b36f42" stroke-width="1" stroke-linecap="round" opacity="1" pathLength="1"/>
<line x1="710.0" y1="574.0" x2="800.0" y2="574.0" stroke="#b36f42" stroke-width="1" stroke-linecap="round" opacity="1" pathLength="1"/>
<rect x="860.0" y="538.0" width="90.0" height="72.0" rx="0" fill="#c9d3d3" stroke="#b36f42" stroke-width="2" pathLength="1"/>
<line x1="905.0" y1="610.0" x2="905.0" y2="538.0" stroke="#b36f42" stroke-width="1" stroke-linecap="round" opacity="1" pathLength="1"/>
<line x1="860.0" y1="574.0" x2="950.0" y2="574.0" stroke="#b36f42" stroke-width="1" stroke-linecap="round" opacity="1" pathLength="1"/>
<rect x="1010.0" y="538.0" width="90.0" height="72.0" rx="0" fill="#c9d3d3" stroke="#b36f42" stroke-width="2" pathLength="1"/>
<line x1="1055.0" y1="610.0" x2="1055.0" y2="538.0" stroke="#b36f42" stroke-width="1" stroke-linecap="round" opacity="1" pathLength="1"/>
<line x1="1010.0" y1="574.0" x2="1100.0" y2="574.0" stroke="#b36f42" stroke-width="1" stroke-linecap="round" opacity="1" pathLength="1"/>
<circle cx="1190.0" cy="571.0" r="16.5" fill="#c9d3d3" stroke="#b36f42" stroke-width="1.6" pathLength="1"/>
<circle cx="1268.0" cy="571.0" r="16.5" fill="#c9d3d3" stroke="#b36f42" stroke-width="1.6" pathLength="1"/>
<circle cx="1346.0" cy="571.0" r="16.5" fill="#c9d3d3" stroke="#b36f42" stroke-width="1.6" pathLength="1"/>
<path d="M 176.0 508.1 L 188.5 505.7 L 201.0 503.3 L 213.4 500.9 L 225.9 498.6 L 238.4 496.3 L 250.9 494.1 L 263.4 492.0 L 275.8 490.1 L 288.3 488.3 L 300.8 486.7 L 313.3 485.4 L 325.8 484.3 L 338.2 483.5 L 350.7 482.9 L 363.2 482.6 L 375.7 482.5 L 388.2 482.7 L 400.6 483.2 L 413.1 484.0 L 425.6 485.0 L 438.1 486.3 L 450.6 487.8 L 463.0 489.5 L 475.5 491.3 L 488.0 493.4 L 500.5 495.5 L 513.0 497.8 L 525.4 500.2 L 537.9 502.6 L 550.4 505.0 L 562.9 507.3 L 575.4 509.7 L 587.8 511.9 L 600.3 514.1 L 612.8 516.1 L 625.3 517.9 L 637.8 519.5 L 650.2 521.0 L 662.7 522.2 L 675.2 523.2 L 687.7 523.9 L 700.2 524.3 L 712.6 524.5 L 725.1 524.4 L 737.6 524.0 L 750.1 523.4 L 762.6 522.5 L 775.0 521.3 L 787.5 519.9 L 800.0 518.3 L 812.5 516.6 L 825.0 514.6 L 837.4 512.5 L 849.9 510.3 L 862.4 508.0 L 874.9 505.6 L 887.4 503.2 L 899.8 500.8 L 912.3 498.4 L 924.8 496.1 L 937.3 493.9 L 949.8 491.9 L 962.2 490.0 L 974.7 488.2 L 987.2 486.7 L 999.7 485.3 L 1012.2 484.3 L 1024.6 483.4 L 1037.1 482.9 L 1049.6 482.6 L 1062.1 482.5 L 1074.6 482.8 L 1087.0 483.3 L 1099.5 484.1 L 1112.0 485.1 L 1124.5 486.4 L 1137.0 487.9 L 1149.4 489.6 L 1161.9 491.5 L 1174.4 493.5 L 1186.9 495.7 L 1199.4 497.9 L 1211.8 500.3 L 1224.3 502.7 L 1236.8 505.1 L 1249.3 507.5 L 1261.8 509.8 L 1274.2 512.0 L 1286.7 514.2 L 1299.2 516.2 L 1311.7 518.0 L 1324.2 519.6 L 1336.6 521.1 L 1349.1 522.3 L 1361.6 523.2 L 1374.1 523.9 L 1386.6 524.3 L 1399.0 524.5 L 1411.5 524.4 L 1424.0 524.0 L 1424.0 534.5 L 1424.0 534.5 L 1411.5 534.9 L 1399.0 535.0 L 1386.6 534.8 L 1374.1 534.4 L 1361.6 533.7 L 1349.1 532.8 L 1336.6 531.6 L 1324.2 530.1 L 1311.7 528.5 L 1299.2 526.7 L 1286.7 524.7 L 1274.2 522.5 L 1261.8 520.3 L 1249.3 518.0 L 1236.8 515.6 L 1224.3 513.2 L 1211.8 510.8 L 1199.4 508.4 L 1186.9 506.2 L 1174.4 504.0 L 1161.9 502.0 L 1149.4 500.1 L 1137.0 498.4 L 1124.5 496.9 L 1112.0 495.6 L 1099.5 494.6 L 1087.0 493.8 L 1074.6 493.3 L 1062.1 493.0 L 1049.6 493.1 L 1037.1 493.4 L 1024.6 493.9 L 1012.2 494.8 L 999.7 495.8 L 987.2 497.2 L 974.7 498.7 L 962.2 500.5 L 949.8 502.4 L 937.3 504.4 L 924.8 506.6 L 912.3 508.9 L 899.8 511.3 L 887.4 513.7 L 874.9 516.1 L 862.4 518.5 L 849.9 520.8 L 837.4 523.0 L 825.0 525.1 L 812.5 527.1 L 800.0 528.8 L 787.5 530.4 L 775.0 531.8 L 762.6 533.0 L 750.1 533.9 L 737.6 534.5 L 725.1 534.9 L 712.6 535.0 L 700.2 534.8 L 687.7 534.4 L 675.2 533.7 L 662.7 532.7 L 650.2 531.5 L 637.8 530.0 L 625.3 528.4 L 612.8 526.6 L 600.3 524.6 L 587.8 522.4 L 575.4 520.2 L 562.9 517.8 L 550.4 515.5 L 537.9 513.1 L 525.4 510.7 L 513.0 508.3 L 500.5 506.0 L 488.0 503.9 L 475.5 501.8 L 463.0 500.0 L 450.6 498.3 L 438.1 496.8 L 425.6 495.5 L 413.1 494.5 L 400.6 493.7 L 388.2 493.2 L 375.7 493.0 L 363.2 493.1 L 350.7 493.4 L 338.2 494.0 L 325.8 494.8 L 313.3 495.9 L 300.8 497.2 L 288.3 498.8 L 275.8 500.6 L 263.4 502.5 L 250.9 504.6 L 238.4 506.8 L 225.9 509.1 L 213.4 511.4 L 201.0 513.8 L 188.5 516.2 L 176.0 518.6 Z" fill="#cfc8ba" stroke="#111310" stroke-width="1.3" pathLength="1"/>
<rect x="-70.0" y="556.0" width="240.0" height="7.5" rx="0" fill="#bfb7a7" stroke="#111310" stroke-width="1" pathLength="1"/>
<line x1="-70.0" y1="640.0" x2="-70.0" y2="556.0" stroke="#111310" stroke-width="1.2" stroke-linecap="round" opacity="1" pathLength="1"/>
<line x1="-10.0" y1="640.0" x2="-10.0" y2="556.0" stroke="#111310" stroke-width="1.2" stroke-linecap="round" opacity="1" pathLength="1"/>
<line x1="50.0" y1="640.0" x2="50.0" y2="556.0" stroke="#111310" stroke-width="1.2" stroke-linecap="round" opacity="1" pathLength="1"/>
<line x1="110.0" y1="640.0" x2="110.0" y2="556.0" stroke="#111310" stroke-width="1.2" stroke-linecap="round" opacity="1" pathLength="1"/>
<line x1="170.0" y1="640.0" x2="170.0" y2="556.0" stroke="#111310" stroke-width="1.2" stroke-linecap="round" opacity="1" pathLength="1"/>
<ellipse cx="-40.0" cy="538.0" rx="33.0" ry="24.0" fill="#d79a73" stroke="#6e716b" stroke-width="0.8" pathLength="1"/>
<ellipse cx="50.0" cy="538.0" rx="33.0" ry="24.0" fill="#d79a73" stroke="#6e716b" stroke-width="0.8" pathLength="1"/>
<ellipse cx="140.0" cy="538.0" rx="33.0" ry="24.0" fill="#d79a73" stroke="#6e716b" stroke-width="0.8" pathLength="1"/>
<line x1="335.0" y1="640.0" x2="335.0" y2="589.0" stroke="#111310" stroke-width="1.6" stroke-linecap="round" opacity="1" pathLength="1"/>
<circle cx="335.0" cy="581.5" r="3.2" fill="#111310" stroke="#111310" stroke-width="1" pathLength="1"/>
<line x1="368.0" y1="640.0" x2="368.0" y2="589.0" stroke="#111310" stroke-width="1.6" stroke-linecap="round" opacity="1" pathLength="1"/>
<circle cx="368.0" cy="581.5" r="3.2" fill="#111310" stroke="#111310" stroke-width="1" pathLength="1"/>
<line x1="860.0" y1="640.0" x2="860.0" y2="589.0" stroke="#111310" stroke-width="1.6" stroke-linecap="round" opacity="1" pathLength="1"/>
<circle cx="860.0" cy="581.5" r="3.2" fill="#111310" stroke="#111310" stroke-width="1" pathLength="1"/>
<line x1="-190.0" y1="640.0" x2="-190.0" y2="430.0" stroke="#6e716b" stroke-width="1.6" stroke-linecap="round" opacity="1" pathLength="1"/>
<line x1="-190.0" y1="430.0" x2="-124.0" y2="430.0" stroke="#8c9878" stroke-width="1.4" stroke-linecap="round" opacity="1" pathLength="1"/>
<line x1="-190.0" y1="430.0" x2="-143.3" y2="406.7" stroke="#8c9878" stroke-width="1.4" stroke-linecap="round" opacity="1" pathLength="1"/>
<line x1="-190.0" y1="430.0" x2="-190.0" y2="397.0" stroke="#8c9878" stroke-width="1.4" stroke-linecap="round" opacity="1" pathLength="1"/>
<line x1="-190.0" y1="430.0" x2="-236.7" y2="406.7" stroke="#8c9878" stroke-width="1.4" stroke-linecap="round" opacity="1" pathLength="1"/>
<line x1="-190.0" y1="430.0" x2="-256.0" y2="430.0" stroke="#8c9878" stroke-width="1.4" stroke-linecap="round" opacity="1" pathLength="1"/>
<line x1="-190.0" y1="430.0" x2="-236.7" y2="453.3" stroke="#8c9878" stroke-width="1.4" stroke-linecap="round" opacity="1" pathLength="1"/>
<line x1="-190.0" y1="430.0" x2="-190.0" y2="463.0" stroke="#8c9878" stroke-width="1.4" stroke-linecap="round" opacity="1" pathLength="1"/>
<line x1="-190.0" y1="430.0" x2="-143.3" y2="453.3" stroke="#8c9878" stroke-width="1.4" stroke-linecap="round" opacity="1" pathLength="1"/>
<line x1="1505.0" y1="640.0" x2="1505.0" y2="430.0" stroke="#6e716b" stroke-width="1.6" stroke-linecap="round" opacity="1" pathLength="1"/>
<line x1="1505.0" y1="430.0" x2="1571.0" y2="430.0" stroke="#8c9878" stroke-width="1.4" stroke-linecap="round" opacity="1" pathLength="1"/>
<line x1="1505.0" y1="430.0" x2="1551.7" y2="406.7" stroke="#8c9878" stroke-width="1.4" stroke-linecap="round" opacity="1" pathLength="1"/>
<line x1="1505.0" y1="430.0" x2="1505.0" y2="397.0" stroke="#8c9878" stroke-width="1.4" stroke-linecap="round" opacity="1" pathLength="1"/>
<line x1="1505.0" y1="430.0" x2="1458.3" y2="406.7" stroke="#8c9878" stroke-width="1.4" stroke-linecap="round" opacity="1" pathLength="1"/>
<line x1="1505.0" y1="430.0" x2="1439.0" y2="430.0" stroke="#8c9878" stroke-width="1.4" stroke-linecap="round" opacity="1" pathLength="1"/>
<line x1="1505.0" y1="430.0" x2="1458.3" y2="453.3" stroke="#8c9878" stroke-width="1.4" stroke-linecap="round" opacity="1" pathLength="1"/>
<line x1="1505.0" y1="430.0" x2="1505.0" y2="463.0" stroke="#8c9878" stroke-width="1.4" stroke-linecap="round" opacity="1" pathLength="1"/>
<line x1="1505.0" y1="430.0" x2="1551.7" y2="453.3" stroke="#8c9878" stroke-width="1.4" stroke-linecap="round" opacity="1" pathLength="1"/>
<line x1="-130.0" y1="640.0" x2="-130.0" y2="613.0" stroke="#6e716b" stroke-width="1.3" stroke-linecap="round" opacity="1" pathLength="1"/>
<line x1="-10.0" y1="640.0" x2="-10.0" y2="613.0" stroke="#6e716b" stroke-width="1.3" stroke-linecap="round" opacity="1" pathLength="1"/>
<line x1="110.0" y1="640.0" x2="110.0" y2="613.0" stroke="#6e716b" stroke-width="1.3" stroke-linecap="round" opacity="1" pathLength="1"/>
<line x1="230.0" y1="640.0" x2="230.0" y2="613.0" stroke="#6e716b" stroke-width="1.3" stroke-linecap="round" opacity="1" pathLength="1"/>
<line x1="350.0" y1="640.0" x2="350.0" y2="613.0" stroke="#6e716b" stroke-width="1.3" stroke-linecap="round" opacity="1" pathLength="1"/>
<line x1="470.0" y1="640.0" x2="470.0" y2="613.0" stroke="#6e716b" stroke-width="1.3" stroke-linecap="round" opacity="1" pathLength="1"/>
<line x1="590.0" y1="640.0" x2="590.0" y2="613.0" stroke="#6e716b" stroke-width="1.3" stroke-linecap="round" opacity="1" pathLength="1"/>
<line x1="710.0" y1="640.0" x2="710.0" y2="613.0" stroke="#6e716b" stroke-width="1.3" stroke-linecap="round" opacity="1" pathLength="1"/>
<line x1="830.0" y1="640.0" x2="830.0" y2="613.0" stroke="#6e716b" stroke-width="1.3" stroke-linecap="round" opacity="1" pathLength="1"/>
<line x1="950.0" y1="640.0" x2="950.0" y2="613.0" stroke="#6e716b" stroke-width="1.3" stroke-linecap="round" opacity="1" pathLength="1"/>
<line x1="1070.0" y1="640.0" x2="1070.0" y2="613.0" stroke="#6e716b" stroke-width="1.3" stroke-linecap="round" opacity="1" pathLength="1"/>
<line x1="1190.0" y1="640.0" x2="1190.0" y2="613.0" stroke="#6e716b" stroke-width="1.3" stroke-linecap="round" opacity="1" pathLength="1"/>
<line x1="1310.0" y1="640.0" x2="1310.0" y2="613.0" stroke="#6e716b" stroke-width="1.3" stroke-linecap="round" opacity="1" pathLength="1"/>
<line x1="1430.0" y1="640.0" x2="1430.0" y2="613.0" stroke="#6e716b" stroke-width="1.3" stroke-linecap="round" opacity="1" pathLength="1"/>
<line x1="200.0" y1="680.0" x2="1400.0" y2="680.0" stroke="#b36f42" stroke-width="1" stroke-linecap="round" opacity="1" pathLength="1"/>
<line x1="200.0" y1="674.0" x2="200.0" y2="686.0" stroke="#b36f42" stroke-width="1" stroke-linecap="round" opacity="1" pathLength="1"/>
<line x1="500.0" y1="674.0" x2="500.0" y2="686.0" stroke="#b36f42" stroke-width="1" stroke-linecap="round" opacity="1" pathLength="1"/>
<line x1="1400.0" y1="674.0" x2="1400.0" y2="686.0" stroke="#b36f42" stroke-width="1" stroke-linecap="round" opacity="1" pathLength="1"/>
<text x="350.0" y="672.0" font-family="Helvetica, Arial, sans-serif" font-size="11" fill="#b36f42" text-anchor="middle" font-weight="600" letter-spacing="0">10,00</text>
<text x="950.0" y="672.0" font-family="Helvetica, Arial, sans-serif" font-size="11" fill="#b36f42" text-anchor="middle" font-weight="600" letter-spacing="0">30,00</text>
<text x="1410.0" y="684.0" font-family="Helvetica, Arial, sans-serif" font-size="11" fill="#b36f42" text-anchor="start" font-weight="600" letter-spacing="0">40,00 m</text>
<line x1="1470.0" y1="640.0" x2="1470.0" y2="482.5" stroke="#b36f42" stroke-width="1" stroke-linecap="round" opacity="1" pathLength="1"/>
<line x1="1464.0" y1="640.0" x2="1476.0" y2="640.0" stroke="#b36f42" stroke-width="1" stroke-linecap="round" opacity="1" pathLength="1"/>
<text x="1480.0" y="644.0" font-family="Helvetica, Arial, sans-serif" font-size="11" fill="#b36f42" text-anchor="start" font-weight="600" letter-spacing="0">±0,00</text>
<line x1="1464.0" y1="514.0" x2="1476.0" y2="514.0" stroke="#b36f42" stroke-width="1" stroke-linecap="round" opacity="1" pathLength="1"/>
<text x="1480.0" y="518.0" font-family="Helvetica, Arial, sans-serif" font-size="11" fill="#b36f42" text-anchor="start" font-weight="600" letter-spacing="0">+4,20</text>
<line x1="1464.0" y1="482.5" x2="1476.0" y2="482.5" stroke="#b36f42" stroke-width="1" stroke-linecap="round" opacity="1" pathLength="1"/>
<text x="1480.0" y="486.5" font-family="Helvetica, Arial, sans-serif" font-size="11" fill="#b36f42" text-anchor="start" font-weight="600" letter-spacing="0">+5,25 tepe</text>
<text x="60.0" y="70.0" font-family="Helvetica, Arial, sans-serif" font-size="13" fill="#b36f42" text-anchor="start" font-weight="600" letter-spacing="3">SAĞLIK MERKEZİ · DUBAİ</text>
<text x="60.0" y="108.0" font-family="Georgia, 'Times New Roman', serif" font-size="30" fill="#111310" text-anchor="start" font-weight="400" letter-spacing="0">Güney Cephesi</text>
<text x="60.0" y="134.0" font-family="Helvetica, Arial, sans-serif" font-size="13" fill="#6e716b" text-anchor="start" font-weight="400" letter-spacing="0.3">Dalgalı çatı profili · ahşap kaplama · turuncu doğramalar · lomboz pencereler · cam giriş köşesi</text>
<rect x="1096.0" y="782.0" width="470.0" height="86.0" rx="0" fill="#ece7dc" stroke="#b36f42" stroke-width="1.2" pathLength="1"/>
<line x1="1170.0" y1="782.0" x2="1170.0" y2="868.0" stroke="#b36f42" stroke-width="1" stroke-linecap="round" opacity="1" pathLength="1"/>
<text x="1133.0" y="837.0" font-family="Georgia, 'Times New Roman', serif" font-size="30" fill="#b36f42" text-anchor="middle" font-weight="700" letter-spacing="0">HMİ</text>
<text x="1188.0" y="812.0" font-family="Georgia, 'Times New Roman', serif" font-size="19" fill="#111310" text-anchor="start" font-weight="400" letter-spacing="0">Sağlık Merkezi · Dubai</text>
<text x="1188.0" y="835.0" font-family="Helvetica, Arial, sans-serif" font-size="10.5" fill="#b36f42" text-anchor="start" font-weight="600" letter-spacing="2.4">GÜNEY CEPHESI · 02/02</text>
<text x="1188.0" y="855.0" font-family="Helvetica, Arial, sans-serif" font-size="10" fill="#6e716b" text-anchor="start" font-weight="400" letter-spacing="0.4">Konsept çizim · Ölçeksiz · Haşimoğlu Mimarlık · 2026</text>
</svg>